<svg id="Icon_awesome-camera" data-name="Icon awesome-camera" xmlns="http://www.w3.org/2000/svg" width="42.298" height="37.011" viewBox="0 0 42.298 37.011">
  <path id="Icon_awesome-camera-2" data-name="Icon awesome-camera" d="M42.3,11.5V35.3a3.967,3.967,0,0,1-3.965,3.965H3.965A3.967,3.967,0,0,1,0,35.3V11.5A3.967,3.967,0,0,1,3.965,7.537h7.27l1.016-2.718A3.96,3.96,0,0,1,15.961,2.25H26.329a3.96,3.96,0,0,1,3.709,2.569l1.024,2.718h7.27A3.967,3.967,0,0,1,42.3,11.5ZM31.063,23.4a9.914,9.914,0,1,0-9.914,9.914A9.922,9.922,0,0,0,31.063,23.4Zm-2.644,0a7.27,7.27,0,1,1-7.27-7.27A7.281,7.281,0,0,1,28.419,23.4Z" transform="translate(0 -2.25)"/>
</svg>
