<svg id="Component_1_1" data-name="Component 1 – 1" xmlns="http://www.w3.org/2000/svg" width="54.275" height="42.003" viewBox="0 0 54.275 42.003">
  <path id="Path_2" data-name="Path 2" d="M147.671,88.509l-14.525-5.094a7.845,7.845,0,0,0-1.951-.434,1.319,1.319,0,0,0-1.3.922c-.271.217-.6.542-1.084.976a9.724,9.724,0,0,1-6.124,1.9,9.3,9.3,0,0,1-6.07-1.9c-.488-.434-.813-.759-1.084-.976a1.319,1.319,0,0,0-1.3-.922,7.336,7.336,0,0,0-1.951.434l-14.47,5.094A3.282,3.282,0,0,0,95.75,92.3l1.789,7.262a2.667,2.667,0,0,0,2.656,2.114,2.428,2.428,0,0,0,1.084-.217l4.065-1.626a.2.2,0,0,1,.163-.054.237.237,0,0,1,.054.163l1.951,22.112a3.273,3.273,0,0,0,3.2,2.927h24.225a3.273,3.273,0,0,0,3.2-2.927l1.951-22.112a.237.237,0,0,1,.054-.163.421.421,0,0,1,.163.054l4.065,1.626a2.583,2.583,0,0,0,1.084.217,2.723,2.723,0,0,0,2.656-2.114l1.789-7.262a3.415,3.415,0,0,0-2.222-3.794Z" transform="translate(-95.665 -82.981)"/>
</svg>
