<svg id="Icon_awesome-save" data-name="Icon awesome-save" xmlns="http://www.w3.org/2000/svg" width="36.076" height="36.076" viewBox="0 0 36.076 36.076">
  <path id="Icon_awesome-save-2" data-name="Icon awesome-save" d="M34.944,10.137,28.189,3.382A3.865,3.865,0,0,0,25.456,2.25H3.865A3.865,3.865,0,0,0,0,6.115V34.461a3.865,3.865,0,0,0,3.865,3.865H32.211a3.865,3.865,0,0,0,3.865-3.865V12.87a3.865,3.865,0,0,0-1.132-2.733ZM18.038,33.173a5.154,5.154,0,1,1,5.154-5.154A5.154,5.154,0,0,1,18.038,33.173ZM25.769,8.65v8.095a.966.966,0,0,1-.966.966H6.12a.966.966,0,0,1-.966-.966V8.37A.966.966,0,0,1,6.12,7.4h18.4a.966.966,0,0,1,.683.283l.28.28a.966.966,0,0,1,.283.683Z" transform="translate(0 -2.25)"/>
</svg>
